<?xml version="1.0" encoding="UTF-8" standalone="no"?>
<!-- Created with Inkscape (http://www.inkscape.org/) -->

<svg
   xmlns:dc="http://purl.org/dc/elements/1.1/"
   xmlns:cc="http://creativecommons.org/ns#"
   xmlns:rdf="http://www.w3.org/1999/02/22-rdf-syntax-ns#"
   xmlns:svg="http://www.w3.org/2000/svg"
   xmlns="http://www.w3.org/2000/svg"
   xmlns:sodipodi="http://sodipodi.sourceforge.net/DTD/sodipodi-0.dtd"
   xmlns:inkscape="http://www.inkscape.org/namespaces/inkscape"
   width="16"
   height="24"
   viewBox="0 0 16 24"
   id="svg2"
   version="1.1"
   inkscape:version="0.91 r13725"
   sodipodi:docname="pillar.svg">
  <defs
     id="defs4">
    <symbol
       id="UpArrow">
      <title
         id="title5552">Up Arrow</title>
      <path
         d="M 36,9 58,31 58,46 42,30 42,62 30,62 30,30 14,46 14,31 Z"
         style="stroke:none"
         id="path5554"
         inkscape:connector-curvature="0" />
    </symbol>
  </defs>
  <sodipodi:namedview
     id="base"
     pagecolor="#ffffff"
     bordercolor="#666666"
     borderopacity="1.0"
     inkscape:pageopacity="0.0"
     inkscape:pageshadow="2"
     inkscape:zoom="6.4621815"
     inkscape:cx="-22.712937"
     inkscape:cy="49.508806"
     inkscape:document-units="px"
     inkscape:current-layer="layer1"
     showgrid="false"
     inkscape:window-width="1791"
     inkscape:window-height="1019"
     inkscape:window-x="0"
     inkscape:window-y="32"
     inkscape:window-maximized="1"
     units="px" />
  <metadata
     id="metadata7">
    <rdf:RDF>
      <cc:Work
         rdf:about="">
        <dc:format>image/svg+xml</dc:format>
        <dc:type
           rdf:resource="http://purl.org/dc/dcmitype/StillImage" />
        <dc:title></dc:title>
      </cc:Work>
    </rdf:RDF>
  </metadata>
  <g
     inkscape:label="Layer 1"
     inkscape:groupmode="layer"
     id="layer1"
     transform="translate(0,-1028.3622)">
    <path
       style="color:#000000;clip-rule:nonzero;display:inline;overflow:visible;visibility:visible;opacity:1;isolation:auto;mix-blend-mode:normal;color-interpolation:sRGB;color-interpolation-filters:linearRGB;solid-color:#000000;solid-opacity:1;fill:#ff0000;fill-opacity:1;fill-rule:evenodd;stroke:none;stroke-width:1px;stroke-linecap:butt;stroke-linejoin:miter;stroke-miterlimit:4;stroke-dasharray:none;stroke-dashoffset:0;stroke-opacity:1;color-rendering:auto;image-rendering:auto;shape-rendering:auto;text-rendering:auto;enable-background:accumulate"
       d="m 8.0000001,1028.6302 -5.619267,4.6152 0,3.1468 4.08675,-3.3565 0,4.5518 a 7.3387347,7.3387347 0 0 0 -5.806215,7.1679 7.3387347,7.3387347 0 0 0 7.338732,7.3388 7.3387347,7.3387347 0 0 0 7.3387319,-7.3388 7.3387347,7.3387347 0 0 0 -5.8062149,-7.1734 l 0,-4.5463 4.0867499,3.3565 0,-3.1468 -5.6192669,-4.6152 z m 0,11.7243 a 4.6080426,4.4009398 0 0 1 4.6080119,4.4009 4.6080426,4.4009398 0 0 1 -4.6080119,4.401 4.6080426,4.4009398 0 0 1 -4.608068,-4.401 4.6080426,4.4009398 0 0 1 4.608068,-4.4009 z"
       id="path4140"
       inkscape:connector-curvature="0" />
  </g>
</svg>
