<?xml version="1.0" encoding="UTF-8" standalone="no"?>
<!-- Created with Inkscape (http://www.inkscape.org/) -->

<svg
   xmlns:dc="http://purl.org/dc/elements/1.1/"
   xmlns:cc="http://creativecommons.org/ns#"
   xmlns:rdf="http://www.w3.org/1999/02/22-rdf-syntax-ns#"
   xmlns:svg="http://www.w3.org/2000/svg"
   xmlns="http://www.w3.org/2000/svg"
   xmlns:sodipodi="http://sodipodi.sourceforge.net/DTD/sodipodi-0.dtd"
   xmlns:inkscape="http://www.inkscape.org/namespaces/inkscape"
   version="1.1"
   width="100%"
   height="100%"
   viewBox="0 0 16 16"
   id="svg2"
   inkscape:version="0.91 r13725"
   sodipodi:docname="station.svg">
  <metadata
     id="metadata10">
    <rdf:RDF>
      <cc:Work
         rdf:about="">
        <dc:format>image/svg+xml</dc:format>
        <dc:type
           rdf:resource="http://purl.org/dc/dcmitype/StillImage" />
        <dc:title></dc:title>
      </cc:Work>
    </rdf:RDF>
  </metadata>
  <defs
     id="defs8">
    <symbol
       id="Shelter">
      <title
         id="title7355">Shelter</title>
      <path
         d="m 12.5,61 51.5,0 0,-5.5 -46,0 0,-20 46,-21 0,-5.5 -57,26 0,5.5 5.5,-2.5 z"
         style="stroke:none"
         id="path7357" />
    </symbol>
  </defs>
  <sodipodi:namedview
     pagecolor="#ffffff"
     bordercolor="#666666"
     borderopacity="1"
     objecttolerance="10"
     gridtolerance="10"
     guidetolerance="10"
     inkscape:pageopacity="0"
     inkscape:pageshadow="2"
     inkscape:window-width="1791"
     inkscape:window-height="1019"
     id="namedview6"
     showgrid="false"
     showguides="true"
     inkscape:guide-bbox="true"
     inkscape:zoom="41.134357"
     inkscape:cx="5.1512778"
     inkscape:cy="9.9118552"
     inkscape:window-x="0"
     inkscape:window-y="32"
     inkscape:window-maximized="1"
     inkscape:current-layer="svg2">
    <sodipodi:guide
       position="-6.7819732,16.019488"
       orientation="0,1"
       id="guide9629" />
    <sodipodi:guide
       position="0,19.761267"
       orientation="1,0"
       id="guide9631" />
    <sodipodi:guide
       position="1.9488429,19.254568"
       orientation="1,0"
       id="guide9633" />
    <sodipodi:guide
       position="13.992692,18.397077"
       orientation="1,0"
       id="guide9637" />
    <sodipodi:guide
       position="-2.2606577,13.719854"
       orientation="-0.70710678,0.70710678"
       id="guide9659" />
    <sodipodi:guide
       position="16.954933,15.084044"
       orientation="0.70710678,0.70710678"
       id="guide9661" />
  </sodipodi:namedview>
  <path
     d="m 7.8051157,1.607973 c -3.5758387,1.0298214 -5,4.147728 -5,6.6363651 0,2.4886369 1.7449329,4.3632129 4,4.9772729 -2,-2.703144 -2,-4.9772729 1,-6.6363644 -0.5049218,1.1222239 0,3.3181825 1,4.1477284 0.431455,-0.332447 1,-1.1818759 1,-1.6590919 2.0000003,1.6590919 0.5628983,3.0139559 0,4.1477279 1.0881803,-0.4638 3.0000003,-1.659091 3.0000003,-4.1477279 0,-2.4886365 -2,-3.3181821 -2,-5.8068189 -1.3835159,0.4970995 -2.0000003,1.6590912 -2.0000003,2.4886368 -0.9520606,-0.4616915 -2,-2.2842155 -1,-4.147728 z"
     id="path4"
     style="color:#000000;clip-rule:nonzero;display:inline;overflow:visible;visibility:visible;opacity:1;isolation:auto;mix-blend-mode:normal;color-interpolation:sRGB;color-interpolation-filters:linearRGB;solid-color:#000000;solid-opacity:1;fill:#ff0000;fill-opacity:1;fill-rule:evenodd;stroke:none;stroke-width:1px;stroke-linecap:butt;stroke-linejoin:miter;stroke-miterlimit:4;stroke-dasharray:none;stroke-dashoffset:0;stroke-opacity:1;color-rendering:auto;image-rendering:auto;shape-rendering:auto;text-rendering:auto;enable-background:accumulate"
     inkscape:connector-curvature="0" />
  <path
     style="color:#000000;clip-rule:nonzero;display:inline;overflow:visible;visibility:visible;opacity:1;isolation:auto;mix-blend-mode:normal;color-interpolation:sRGB;color-interpolation-filters:linearRGB;solid-color:#000000;solid-opacity:1;fill:#ff0000;fill-opacity:1;fill-rule:evenodd;stroke:none;stroke-width:1px;stroke-linecap:butt;stroke-linejoin:miter;stroke-miterlimit:4;stroke-dasharray:none;stroke-dashoffset:0;stroke-opacity:1;color-rendering:auto;image-rendering:auto;shape-rendering:auto;text-rendering:auto;enable-background:accumulate"
     d="M 7.9746094 -3.9179688 L -3.3496094 5.4824219 L -1.9726562 6.6230469 L 0 4.9882812 L 0 14.091797 L -0.01953125 14.091797 L -0.01953125 16.041016 L 15.943359 16.037109 L 15.943359 16 L 15.980469 16 L 15.980469 4.9882812 L 17.992188 6.65625 L 19.369141 5.5136719 L 8.0449219 -3.8847656 L 8.0292969 -3.8710938 L 7.9746094 -3.9179688 z M 7.9902344 -1.6445312 L 13.992188 3.3359375 L 13.992188 14.089844 L 1.9492188 14.091797 L 1.9492188 3.3691406 L 7.9902344 -1.6445312 z "
     id="rect9641" />
</svg>
