<?xml version="1.0" encoding="UTF-8" standalone="no"?>
<!-- Created with Inkscape (http://www.inkscape.org/) -->

<svg
   xmlns:dc="http://purl.org/dc/elements/1.1/"
   xmlns:cc="http://creativecommons.org/ns#"
   xmlns:rdf="http://www.w3.org/1999/02/22-rdf-syntax-ns#"
   xmlns:svg="http://www.w3.org/2000/svg"
   xmlns="http://www.w3.org/2000/svg"
   xmlns:sodipodi="http://sodipodi.sourceforge.net/DTD/sodipodi-0.dtd"
   xmlns:inkscape="http://www.inkscape.org/namespaces/inkscape"
   width="16"
   height="16"
   viewBox="0 0 16 16"
   id="svg2"
   version="1.1"
   inkscape:version="0.91 r13725"
   sodipodi:docname="ts.svg">
  <defs
     id="defs4">
    <symbol
       id="UpArrow">
      <title
         id="title5552">Up Arrow</title>
      <path
         d="M 36,9 58,31 58,46 42,30 42,62 30,62 30,30 14,46 14,31 Z"
         style="stroke:none"
         id="path5554"
         inkscape:connector-curvature="0" />
    </symbol>
  </defs>
  <sodipodi:namedview
     id="base"
     pagecolor="#ffffff"
     bordercolor="#666666"
     borderopacity="1.0"
     inkscape:pageopacity="0.0"
     inkscape:pageshadow="2"
     inkscape:zoom="51.3125"
     inkscape:cx="8"
     inkscape:cy="8"
     inkscape:document-units="px"
     inkscape:current-layer="layer1"
     showgrid="false"
     inkscape:window-width="1791"
     inkscape:window-height="1019"
     inkscape:window-x="0"
     inkscape:window-y="32"
     inkscape:window-maximized="1"
     units="px" />
  <metadata
     id="metadata7">
    <rdf:RDF>
      <cc:Work
         rdf:about="">
        <dc:format>image/svg+xml</dc:format>
        <dc:type
           rdf:resource="http://purl.org/dc/dcmitype/StillImage" />
        <dc:title></dc:title>
      </cc:Work>
    </rdf:RDF>
  </metadata>
  <g
     inkscape:label="Layer 1"
     inkscape:groupmode="layer"
     id="layer1"
     transform="translate(0,-1036.3622)">
    <path
       style="color:#000000;clip-rule:nonzero;display:inline;overflow:visible;visibility:visible;opacity:1;isolation:auto;mix-blend-mode:normal;color-interpolation:sRGB;color-interpolation-filters:linearRGB;solid-color:#000000;solid-opacity:1;fill:#c800c8;fill-opacity:1;fill-rule:evenodd;stroke:none;stroke-width:1px;stroke-linecap:butt;stroke-linejoin:miter;stroke-miterlimit:4;stroke-dasharray:none;stroke-dashoffset:0;stroke-opacity:1;color-rendering:auto;image-rendering:auto;shape-rendering:auto;text-rendering:auto;enable-background:accumulate"
       d="m 5.3199555,1039.0056 a 5.2909671,5.3562253 0 0 0 -5.29160291,5.3565 5.2909671,5.3562253 0 0 0 5.29160291,5.3566 5.2909671,5.3562253 0 0 0 5.2916025,-5.3566 5.2909671,5.3562253 0 0 0 -5.2916025,-5.3565 z m 0,1.252 a 4.2235968,4.1037946 0 0 1 4.2239293,4.1045 4.2235968,4.1037946 0 0 1 -4.2239293,4.1032 4.2235968,4.1037946 0 0 1 -4.2239305,-4.1032 4.2235968,4.1037946 0 0 1 4.2239305,-4.1045 z"
       id="path4139"
       inkscape:connector-curvature="0" />
    <path
       style="color:#000000;clip-rule:nonzero;display:inline;overflow:visible;visibility:visible;opacity:1;isolation:auto;mix-blend-mode:normal;color-interpolation:sRGB;color-interpolation-filters:linearRGB;solid-color:#000000;solid-opacity:1;fill:#c800c8;fill-opacity:1;fill-rule:evenodd;stroke:none;stroke-width:1px;stroke-linecap:butt;stroke-linejoin:miter;stroke-miterlimit:4;stroke-dasharray:none;stroke-dashoffset:0;stroke-opacity:1;color-rendering:auto;image-rendering:auto;shape-rendering:auto;text-rendering:auto;enable-background:accumulate"
       d="m 10.71902,1039.0056 a 5.2909671,5.3562253 0 0 0 -5.2916025,5.3565 5.2909671,5.3562253 0 0 0 5.2916025,5.3566 5.2909671,5.3562253 0 0 0 5.291603,-5.3566 5.2909671,5.3562253 0 0 0 -5.291603,-5.3565 z m 0,1.252 a 4.2235968,4.1037946 0 0 1 4.22393,4.1045 4.2235968,4.1037946 0 0 1 -4.22393,4.1032 4.2235968,4.1037946 0 0 1 -4.2239301,-4.1032 4.2235968,4.1037946 0 0 1 4.2239301,-4.1045 z"
       id="path4139-4"
       inkscape:connector-curvature="0" />
  </g>
</svg>
